<?xml version="1.0" standalone="no"?>
<!DOCTYPE svg PUBLIC "-//W3C//DTD SVG 20010904//EN"
 "http://www.w3.org/TR/2001/REC-SVG-20010904/DTD/svg10.dtd">
<svg version="1.0" xmlns="http://www.w3.org/2000/svg"
 width="512.000000pt" height="512.000000pt" viewBox="0 0 512.000000 512.000000"
 preserveAspectRatio="xMidYMid meet">

<g transform="translate(0.000000,512.000000) scale(0.100000,-0.100000)"
fill="#000000" stroke="none">
<path d="M1273 4884 c-94 -34 -165 -157 -199 -342 -22 -118 -29 -423 -15 -612
42 -563 205 -1230 392 -1601 l38 -76 -40 -32 c-22 -18 -69 -67 -105 -109 -268
-314 -359 -665 -267 -1032 109 -439 497 -723 1113 -817 163 -25 578 -25 740 0
388 60 664 181 862 378 199 198 301 475 284 769 -16 277 -138 538 -356 761
l-86 87 34 69 c171 338 322 926 384 1488 20 180 17 606 -5 721 -45 244 -140
364 -288 364 -312 0 -642 -710 -894 -1923 -24 -115 -45 -211 -48 -213 -3 -3
-31 3 -63 13 -83 25 -305 25 -388 0 -32 -10 -60 -16 -63 -13 -3 2 -24 99 -48
214 -134 647 -312 1214 -481 1531 -98 185 -208 317 -301 362 -59 29 -143 34
-200 13z m129 -156 c201 -60 427 -594 637 -1508 55 -238 114 -530 109 -535 -2
-1 -31 -17 -66 -34 -67 -34 -89 -63 -78 -105 8 -34 44 -66 73 -66 13 0 81 29
151 65 142 72 222 95 332 95 110 0 190 -23 332 -95 70 -36 139 -65 153 -65 49
0 88 68 67 115 -7 15 -37 37 -74 56 -35 17 -64 33 -66 34 -10 9 115 581 184
845 219 841 444 1262 640 1198 48 -16 78 -66 101 -170 21 -91 23 -452 5 -638
-53 -526 -175 -1078 -308 -1393 -58 -139 -98 -191 -119 -157 -14 22 -171 110
-198 110 -55 0 -94 -69 -67 -119 5 -10 40 -37 78 -59 38 -23 107 -69 153 -103
268 -199 420 -428 464 -702 19 -118 19 -181 -1 -298 -37 -218 -141 -391 -317
-526 -451 -348 -1504 -366 -2007 -34 -350 231 -472 672 -300 1084 85 205 277
408 535 567 85 52 105 73 105 112 0 37 -40 78 -76 78 -29 0 -90 -32 -167 -87
-26 -19 -54 -32 -62 -29 -19 7 -104 187 -143 301 -199 585 -323 1537 -248
1896 20 92 50 147 89 164 40 18 41 18 89 3z"/>
<path d="M1705 1175 c-50 -49 -15 -135 55 -135 19 0 40 9 55 25 16 15 25 36
25 55 0 19 -9 40 -25 55 -15 16 -36 25 -55 25 -19 0 -40 -9 -55 -25z"/>
<path d="M3305 1175 c-50 -49 -15 -135 55 -135 41 0 80 39 80 80 0 41 -39 80
-80 80 -19 0 -40 -9 -55 -25z"/>
<path d="M2505 975 c-14 -13 -25 -35 -25 -48 0 -29 -18 -47 -47 -47 -13 0 -35
-11 -48 -25 -33 -33 -33 -78 1 -112 22 -22 32 -25 68 -21 24 3 58 12 75 21 28
14 34 14 62 0 17 -9 51 -18 75 -21 36 -4 46 -1 68 21 34 34 34 79 1 112 -13
14 -35 25 -48 25 -29 0 -47 18 -47 47 0 34 -43 73 -80 73 -19 0 -40 -9 -55
-25z"/>
</g>
</svg>
